<svg xmlns="http://www.w3.org/2000/svg" xmlns:xlink="http://www.w3.org/1999/xlink" width="500" zoomAndPan="magnify" viewBox="0 0 375 374.999991" height="500" preserveAspectRatio="xMidYMid meet" version="1.0"><defs><g/><clipPath id="id1"><path d="M 41.648438 102 L 336.757812 102 L 336.757812 248 L 41.648438 248 Z M 41.648438 102 " clip-rule="nonzero"/></clipPath><clipPath id="id2"><path d="M 225 125 L 258 125 L 258 157 L 225 157 Z M 225 125 " clip-rule="nonzero"/></clipPath><clipPath id="id3"><path d="M 256.410156 112.972656 L 268.71875 150.53125 L 227.40625 164.070312 L 215.097656 126.511719 Z M 256.410156 112.972656 " clip-rule="nonzero"/></clipPath><clipPath id="id4"><path d="M 268.390625 87.464844 L 326.246094 263.984375 L 143.464844 323.894531 L 85.609375 147.371094 Z M 268.390625 87.464844 " clip-rule="nonzero"/></clipPath><clipPath id="id5"><path d="M 242 65 L 266 65 L 266 89 L 242 89 Z M 242 65 " clip-rule="nonzero"/></clipPath><clipPath id="id6"><path d="M 274.824219 69.445312 L 265.363281 95.445312 L 236.886719 85.082031 L 246.351562 59.082031 Z M 274.824219 69.445312 " clip-rule="nonzero"/></clipPath><clipPath id="id7"><path d="M 292.234375 60.691406 L 248.527344 180.777344 L 123.488281 135.269531 L 167.195312 15.183594 Z M 292.234375 60.691406 " clip-rule="nonzero"/></clipPath><clipPath id="id8"><path d="M 253 59 L 266 59 L 266 62 L 253 62 Z M 253 59 " clip-rule="nonzero"/></clipPath><clipPath id="id9"><path d="M 274.824219 69.445312 L 265.363281 95.445312 L 236.886719 85.082031 L 246.351562 59.082031 Z M 274.824219 69.445312 " clip-rule="nonzero"/></clipPath><clipPath id="id10"><path d="M 292.234375 60.691406 L 248.527344 180.777344 L 123.488281 135.269531 L 167.195312 15.183594 Z M 292.234375 60.691406 " clip-rule="nonzero"/></clipPath><clipPath id="id11"><path d="M 75 97 L 112 97 L 112 134 L 75 134 Z M 75 97 " clip-rule="nonzero"/></clipPath><clipPath id="id12"><path d="M 75.75 83.796875 L 118.632812 90.949219 L 110.617188 139.03125 L 67.734375 131.878906 Z M 75.75 83.796875 " clip-rule="nonzero"/></clipPath><clipPath id="id13"><path d="M 58.335938 62.9375 L 253.265625 95.441406 L 219.679688 296.867188 L 24.75 264.363281 Z M 58.335938 62.9375 " clip-rule="nonzero"/></clipPath><clipPath id="id14"><path d="M 67 104 L 70 104 L 70 124 L 67 124 Z M 67 104 " clip-rule="nonzero"/></clipPath><clipPath id="id15"><path d="M 75.75 83.796875 L 118.632812 90.949219 L 110.617188 139.03125 L 67.734375 131.878906 Z M 75.75 83.796875 " clip-rule="nonzero"/></clipPath><clipPath id="id16"><path d="M 58.335938 62.9375 L 253.265625 95.441406 L 219.679688 296.867188 L 24.75 264.363281 Z M 58.335938 62.9375 " clip-rule="nonzero"/></clipPath><clipPath id="id17"><path d="M 160 51 L 202 51 L 202 89 L 160 89 Z M 160 51 " clip-rule="nonzero"/></clipPath><clipPath id="id18"><path d="M 139.089844 69.441406 L 182.351562 23.316406 L 223.671875 62.070312 L 180.410156 108.195312 Z M 139.089844 69.441406 " clip-rule="nonzero"/></clipPath><clipPath id="id19"><path d="M -35.960938 204.839844 L 156.011719 0.15625 L 350.121094 182.214844 L 158.148438 386.894531 Z M -35.960938 204.839844 " clip-rule="nonzero"/></clipPath><clipPath id="id20"><path d="M 139 43 L 140 43 L 140 79 L 139 79 Z M 139 43 " clip-rule="nonzero"/></clipPath><clipPath id="id21"><path d="M 139.089844 69.441406 L 182.351562 23.316406 L 223.671875 62.070312 L 180.410156 108.195312 Z M 139.089844 69.441406 " clip-rule="nonzero"/></clipPath><clipPath id="id22"><path d="M -35.960938 204.839844 L 156.011719 0.15625 L 350.121094 182.214844 L 158.148438 386.894531 Z M -35.960938 204.839844 " clip-rule="nonzero"/></clipPath></defs><rect x="-37.5" width="450" fill="#ffffff" y="-37.499999" height="449.999989" fill-opacity="1"/><rect x="-37.5" width="450" fill="#ffffff" y="-37.499999" height="449.999989" fill-opacity="1"/><rect x="-37.5" width="450" fill="#ffffff" y="-37.499999" height="449.999989" fill-opacity="1"/><rect x="-37.5" width="450" fill="#ffffff" y="-37.499999" height="449.999989" fill-opacity="1"/><g clip-path="url(#id1)"><path fill="#007a7a" d="M 143.628906 175.359375 C 142.09375 174.46875 140.589844 173.605469 139.121094 172.78125 C 136.003906 171.351562 133.148438 169.855469 130.171875 168.980469 C 124.398438 166.910156 119.011719 165.902344 114.398438 164.894531 C 109.746094 163.984375 105.792969 163.1875 102.476562 162.480469 C 99.273438 161.742188 96.703125 161.089844 94.699219 160.484375 C 95.964844 161.425781 97.355469 162.515625 98.976562 163.574219 C 99.964844 164.082031 101.007812 164.597656 102.121094 165.175781 C 103.261719 165.730469 104.441406 166.066406 105.667969 166.59375 C 106.945312 167.042969 108.414062 167.464844 109.839844 167.957031 C 110.597656 168.183594 111.367188 168.425781 112.144531 168.675781 C 112.535156 168.808594 112.9375 168.925781 113.324219 169.058594 L 113.628906 169.144531 L 113.714844 169.183594 C 113.714844 169.183594 113.785156 169.203125 113.792969 169.203125 L 113.8125 169.210938 L 114.417969 169.382812 C 116.054688 169.835938 117.714844 170.304688 119.453125 170.792969 C 121.167969 171.253906 122.972656 171.867188 124.753906 172.175781 C 128.371094 172.894531 132.074219 173.804688 136.148438 174.3125 C 138.566406 174.734375 141.078125 175.050781 143.628906 175.359375 Z M 158.351562 198.605469 C 151.003906 194.03125 143.207031 191.929688 135.976562 191.039062 C 127.96875 190.082031 120.5625 190.082031 114.167969 190.261719 C 107.722656 190.589844 102.101562 191.203125 97.238281 191.84375 C 88.945312 192.957031 82.835938 193.945312 78.527344 194.519531 C 78.488281 194.519531 78.480469 194.539062 78.421875 194.558594 C 77.617188 194.808594 76.746094 195.078125 75.804688 195.480469 C 75.691406 195.527344 75.554688 195.585938 75.410156 195.632812 C 79.488281 195.96875 84.175781 195.785156 89.28125 195.382812 C 93.171875 195.058594 97.554688 194.742188 101.96875 194.722656 C 106.320312 194.695312 110.859375 194.675781 115.5 194.65625 C 119.921875 194.675781 124.226562 194.695312 128.398438 194.722656 C 130.472656 194.761719 132.523438 194.789062 134.507812 194.828125 C 136.542969 194.941406 138.546875 195.039062 140.503906 195.144531 C 147.128906 195.585938 153.265625 196.8125 158.351562 198.605469 Z M 164.230469 211.753906 C 166.011719 212.246094 167.84375 212.878906 169.609375 213.75 C 147.128906 192 105.34375 204.246094 76.253906 210.84375 C 76.304688 211.46875 76.121094 212.140625 75.566406 212.734375 C 72.890625 215.570312 69.878906 217.894531 66.636719 219.859375 C 87.457031 218.765625 108.019531 215.398438 128.859375 213.882812 C 141.375 212.984375 155.0625 212.511719 167.59375 215.589844 C 166.28125 215.015625 164.910156 214.546875 163.566406 214.191406 C 159.578125 213.117188 155.578125 212.695312 151.742188 212.511719 C 147.90625 212.320312 144.234375 212.386719 140.722656 212.472656 C 137.203125 212.5625 133.855469 212.648438 130.691406 212.714844 C 118.042969 213.03125 108.171875 213.210938 100.625 213.203125 C 93.078125 213.210938 87.871094 213.183594 84.550781 213.097656 C 81.234375 213 79.804688 212.867188 79.804688 212.675781 C 79.804688 212.511719 81.234375 212.320312 84.550781 212.109375 C 87.871094 211.890625 93.066406 211.667969 100.585938 211.417969 C 108.125 211.152344 117.984375 210.804688 130.644531 210.394531 C 133.796875 210.289062 137.136719 210.171875 140.664062 210.046875 C 144.164062 209.953125 147.914062 209.867188 151.859375 210.039062 C 155.800781 210.203125 159.953125 210.625 164.230469 211.753906 Z M 169.832031 201.082031 C 171.507812 202.585938 173.101562 204.226562 174.644531 205.980469 C 172.929688 202.078125 170.742188 198.539062 168.265625 195.433594 C 166.714844 193.476562 165.0625 191.683594 163.386719 189.996094 C 157.765625 188.671875 152.078125 188.210938 146.351562 188.125 C 146.390625 188.144531 146.410156 188.144531 146.417969 188.144531 C 147.550781 188.46875 148.671875 188.871094 149.84375 189.238281 C 154.464844 190.617188 158.992188 193.074219 163.453125 196.007812 C 165.589844 197.570312 167.691406 199.296875 169.832031 201.082031 Z M 178.632812 226.609375 C 178.308594 225.941406 177.992188 225.277344 177.65625 224.644531 C 161.667969 216.464844 141.472656 217.644531 124.179688 219.339844 C 101.34375 221.574219 78.710938 225.078125 55.710938 225.25 C 54.042969 227.589844 52.507812 230.023438 51.101562 232.519531 C 56.921875 233.007812 63.011719 232.632812 68.785156 232.75 C 83.304688 233.054688 97.824219 233.34375 112.335938 233.613281 C 133.058594 233.996094 153.8125 234.550781 174.539062 234.753906 C 174.644531 234.351562 174.757812 233.964844 174.894531 233.574219 C 158.253906 231.425781 144.234375 231.167969 132.761719 231.117188 C 120.996094 231.15625 111.828125 231.203125 104.824219 231.222656 C 97.824219 231.253906 92.980469 231.15625 89.902344 231.023438 C 86.824219 230.898438 85.480469 230.734375 85.480469 230.5625 C 85.480469 230.398438 86.824219 230.21875 89.902344 230.042969 C 92.980469 229.863281 97.796875 229.6875 104.789062 229.441406 C 111.789062 229.199219 120.964844 228.882812 132.761719 228.777344 C 144.425781 228.710938 158.707031 228.882812 175.816406 231.136719 C 175.871094 231.003906 175.957031 230.851562 176.027344 230.695312 C 163.050781 228.566406 152.011719 228.125 142.871094 227.839844 C 133.078125 227.589844 125.378906 227.609375 119.539062 227.472656 C 107.816406 227.234375 103.359375 226.917969 103.359375 226.5625 C 103.359375 226.226562 107.816406 225.902344 119.539062 225.671875 C 125.386719 225.585938 133.050781 225.382812 142.917969 225.5 C 151.207031 225.652344 161.113281 225.988281 172.621094 227.617188 C 169.839844 226.589844 166.972656 226.09375 164.296875 225.699219 C 159.972656 225.132812 155.875 224.875 152.296875 224.492188 C 145.105469 223.847656 139.503906 223.0625 135.21875 222.976562 C 126.617188 222.488281 123.335938 222.085938 123.335938 221.730469 C 123.335938 221.375 126.617188 221.164062 135.285156 221.191406 C 139.628906 221.058594 145.257812 221.644531 152.519531 222.171875 C 156.152344 222.488281 160.105469 222.6875 164.613281 223.246094 C 166.867188 223.5625 169.226562 223.933594 171.660156 224.65625 C 173.773438 225.199219 175.890625 226.160156 177.953125 227.4375 C 178.175781 227.148438 178.394531 226.878906 178.632812 226.609375 Z M 181.980469 211.753906 C 182.296875 206.585938 182.222656 201.636719 181.722656 196.964844 C 179.085938 193.667969 175.183594 190.597656 170.5 188.144531 C 169.234375 187.472656 167.929688 186.867188 166.578125 186.273438 C 168.488281 188.125 170.347656 190.109375 172.132812 192.316406 C 175.34375 196.324219 178.242188 200.984375 180.273438 206.335938 C 180.957031 208.101562 181.519531 209.902344 181.980469 211.753906 Z M 192.0625 239.300781 C 190.765625 235.828125 189.460938 232.210938 186.84375 229.929688 C 182.835938 226.4375 180.3125 232.539062 179.132812 237.765625 C 183.121094 236.066406 187.6875 237.5625 192.0625 239.300781 Z M 253.460938 220.472656 C 257.632812 220.5 261.792969 220.570312 265.945312 220.675781 C 261.648438 220.050781 257.34375 219.5625 252.988281 219.359375 C 241.816406 218.804688 230 218.335938 218.960938 220.5 C 213.917969 221.5 209.304688 223.195312 204.824219 225.277344 C 220.929688 222.640625 237.003906 220.386719 253.460938 220.472656 Z M 289.203125 182.589844 C 288.359375 181.878906 287.515625 181.179688 286.671875 180.488281 C 282.683594 177.144531 278.703125 173.941406 274.203125 171.332031 C 269.496094 168.609375 265.589844 169.605469 260.375 169.855469 C 257.546875 170.007812 254.976562 170.238281 252.921875 170.296875 C 250.726562 170.632812 248.308594 170.996094 245.585938 171.4375 C 241.527344 172.109375 236.839844 172.914062 231.574219 174.140625 C 226.316406 175.445312 220.390625 177.019531 214.234375 179.78125 C 208.117188 182.523438 201.59375 186.40625 196.464844 192.652344 C 194.613281 194.835938 193.03125 197.351562 191.707031 200.113281 C 190.929688 204.464844 190.125 209.011719 189.28125 213.742188 C 192.242188 209.683594 195.457031 205.867188 199.5625 202.84375 C 207.300781 197.195312 215.816406 192.71875 224.964844 189.8125 C 240.828125 184.75 257.96875 183.394531 274.425781 183.03125 C 277.03125 182.847656 279.976562 182.761719 283.140625 182.707031 C 285.078125 182.675781 287.113281 182.636719 289.203125 182.589844 Z M 310.570312 223.933594 C 306.734375 221.699219 302.964844 219.378906 300.441406 215.570312 C 300.183594 215.207031 300.070312 214.832031 300.039062 214.460938 C 299.984375 214.363281 299.933594 214.257812 299.90625 214.144531 C 298.59375 209.242188 296.886719 204.496094 295.09375 199.785156 C 275.113281 195.875 254.113281 195.394531 234.027344 198.953125 C 217.773438 201.839844 201.746094 207.515625 191.734375 221.078125 C 194 219.179688 196.195312 217.25 198.449219 215.457031 C 202.429688 212.648438 206.273438 210.527344 210.082031 208.523438 C 217.621094 204.550781 225.03125 201.753906 231.96875 200.609375 C 245.566406 198.109375 256.402344 197.042969 264.679688 197.300781 C 272.957031 197.550781 278.632812 198.644531 282.117188 199.691406 C 285.597656 200.804688 287.046875 201.367188 286.996094 201.542969 C 286.929688 201.703125 285.375 201.453125 281.875 200.648438 C 278.394531 199.902344 272.792969 199.09375 264.660156 199.085938 C 256.539062 199.085938 245.890625 200.273438 232.390625 202.902344 C 225.714844 204.0625 218.644531 206.789062 211.222656 210.730469 C 207.519531 212.695312 203.597656 214.882812 199.984375 217.453125 C 198.09375 218.9375 196.253906 220.570312 194.285156 222.238281 C 201.25 218.085938 207.894531 214.390625 214.386719 211.640625 C 218.445312 209.867188 222.480469 208.570312 226.367188 207.527344 C 230.269531 206.625 234.027344 205.894531 237.585938 205.539062 C 244.742188 204.714844 251.121094 204.667969 256.738281 204.6875 C 262.339844 204.714844 267.242188 204.734375 271.5 204.90625 C 279.996094 205.242188 285.847656 206.25 289.492188 207.140625 C 293.066406 208.140625 294.5625 208.742188 294.5625 208.90625 C 294.429688 209.5 288.300781 206.941406 271.441406 206.691406 C 267.222656 206.652344 262.359375 206.71875 256.738281 206.789062 C 251.148438 206.855469 244.835938 206.96875 237.882812 207.851562 C 234.382812 208.234375 230.738281 208.972656 226.960938 209.867188 C 223.21875 210.910156 219.316406 212.175781 215.367188 213.921875 C 215.316406 213.941406 215.261719 213.960938 215.210938 213.988281 C 223.269531 211.285156 230.804688 209.644531 237.671875 209.03125 C 250.957031 207.679688 261.351562 209.03125 269.09375 210.394531 C 271.027344 210.777344 272.824219 211.132812 274.453125 211.449219 C 276.074219 211.890625 277.550781 212.273438 278.902344 212.628906 C 280.226562 213 281.433594 213.320312 282.519531 213.617188 C 283.574219 213.988281 284.523438 214.296875 285.347656 214.585938 C 288.609375 215.726562 289.988281 216.3125 289.921875 216.484375 C 289.875 216.636719 288.386719 216.359375 285.058594 215.523438 C 284.234375 215.324219 283.277344 215.0625 282.203125 214.785156 C 281.117188 214.546875 279.910156 214.296875 278.566406 214.007812 C 277.214844 213.703125 275.738281 213.386719 274.128906 213.03125 C 272.488281 212.761719 270.722656 212.472656 268.804688 212.15625 C 261.132812 211.027344 250.878906 209.902344 237.921875 211.351562 C 231.9375 211.957031 225.425781 213.335938 218.453125 215.542969 C 227.996094 214.171875 237.605469 213.703125 247.246094 214.058594 C 265.792969 214.746094 283.457031 219.582031 301.5 222.878906 C 304.527344 223.175781 307.539062 223.53125 310.570312 223.933594 Z M 260.691406 233.929688 C 280.917969 233.929688 301.449219 233.929688 321.417969 233.929688 C 320.160156 232.699219 318.867188 231.503906 317.601562 230.292969 C 317.570312 230.273438 317.535156 230.292969 317.484375 230.292969 C 312.488281 229.777344 307.519531 228.949219 302.589844 228.011719 C 286.289062 226.226562 269.878906 225.546875 253.460938 225.515625 C 233.453125 225.480469 214.03125 228.816406 194.390625 232.117188 C 194.699219 232.769531 195.003906 233.4375 195.285156 234.109375 C 199.984375 233.929688 203.386719 233.859375 207.253906 233.59375 C 211.328125 233.238281 215.078125 232.882812 218.78125 232.566406 C 222.480469 232.203125 225.992188 231.847656 229.347656 231.503906 C 232.726562 231.253906 235.929688 231.023438 238.957031 230.800781 C 240.472656 230.648438 241.949219 230.667969 243.378906 230.648438 C 244.808594 230.628906 246.210938 230.628906 247.550781 230.609375 C 250.257812 230.601562 252.808594 230.582031 255.195312 230.5625 C 259.972656 230.550781 264.144531 230.496094 267.75 230.609375 C 274.941406 230.761719 279.910156 230.9375 283.074219 231.097656 C 286.257812 231.273438 287.621094 231.445312 287.621094 231.625 C 287.621094 231.789062 286.257812 231.941406 283.074219 232.078125 C 279.910156 232.210938 274.941406 232.328125 267.75 232.402344 C 264.132812 232.402344 259.992188 232.566406 255.222656 232.671875 C 252.855469 232.71875 250.3125 232.769531 247.636719 232.835938 C 246.296875 232.875 244.914062 232.902344 243.476562 232.921875 C 242.046875 232.949219 240.589844 232.949219 239.09375 233.121094 C 237.289062 233.277344 235.402344 233.4375 233.472656 233.59375 C 242.574219 233.660156 251.675781 233.929688 260.691406 233.929688 Z M 329.222656 241.648438 C 328.1875 240.976562 327.039062 240.410156 326.03125 239.75 C 325.683594 239.527344 325.425781 239.261719 325.246094 238.984375 C 304.242188 238.984375 284.417969 238.984375 263.980469 238.984375 C 242.179688 238.984375 219.632812 237.363281 198.015625 240.660156 C 198.179688 240.996094 198.332031 241.324219 198.503906 241.640625 C 198.582031 241.773438 198.648438 241.925781 198.707031 242.0625 C 242.199219 242.109375 285.730469 243.519531 329.222656 241.648438 Z M 47.042969 238.945312 C 47.042969 238.945312 47.023438 238.984375 47.003906 238.984375 C 47.042969 238.984375 47.082031 238.964844 47.109375 238.925781 C 47.246094 238.925781 47.695312 238.984375 47.695312 238.984375 C 47.734375 238.984375 47.773438 238.992188 47.800781 238.992188 C 48.039062 238.964844 48.269531 238.945312 48.539062 238.984375 C 55.117188 239.855469 62.167969 239.347656 68.785156 239.480469 C 83.304688 239.789062 97.824219 240.074219 112.335938 240.34375 C 132.476562 240.726562 152.632812 241.246094 172.773438 241.457031 C 172.773438 240.929688 172.773438 240.34375 172.773438 239.769531 C 152.632812 239.566406 132.476562 239.050781 112.335938 238.65625 C 97.824219 238.386719 83.304688 238.121094 68.785156 237.8125 C 62.226562 237.679688 55.222656 238.167969 48.691406 237.332031 C 48.511719 237.46875 48.289062 237.582031 48.070312 237.679688 C 47.984375 237.785156 47.90625 237.898438 47.800781 238.003906 C 47.398438 238.367188 47.261719 238.789062 47.109375 238.925781 L 47.089844 238.925781 C 47.082031 238.925781 47.0625 238.964844 47.042969 238.945312 Z M 100.855469 200.257812 C 96.953125 200.246094 93.269531 200.410156 89.566406 200.542969 C 81.589844 200.871094 73.984375 200.601562 68.046875 198.175781 L 63.472656 196.285156 L 67.960938 194.605469 C 73.0625 192.707031 77.367188 192.046875 80.390625 191.710938 C 80.464844 191.710938 80.515625 191.710938 80.582031 191.710938 C 84.589844 190.734375 89.855469 189.5625 96.683594 188.316406 C 101.585938 187.441406 107.300781 186.578125 113.9375 186.070312 C 117.339844 185.890625 120.984375 185.753906 124.851562 185.773438 C 125.070312 185.621094 125.320312 185.515625 125.65625 185.515625 C 136.847656 185.402344 148.050781 184.394531 159.03125 186.070312 C 158.945312 185.984375 158.839844 185.890625 158.742188 185.804688 C 157.363281 184.660156 155.960938 183.585938 154.589844 182.5625 C 152.453125 182.140625 150.265625 181.804688 148.019531 181.601562 C 143.628906 181.074219 139.359375 180.585938 135.238281 179.800781 C 131.113281 179.203125 127.113281 178.128906 123.296875 177.210938 C 121.371094 176.789062 119.679688 176.117188 117.964844 175.5625 C 116.265625 174.984375 114.617188 174.410156 113.027344 173.871094 L 112.429688 173.671875 L 112.027344 173.519531 L 111.742188 173.402344 C 111.355469 173.25 110.972656 173.105469 110.597656 172.972656 C 109.839844 172.664062 109.121094 172.355469 108.394531 172.078125 C 106.917969 171.464844 105.515625 170.929688 104.136719 170.296875 C 102.773438 169.605469 101.375 168.980469 100.28125 168.289062 C 99.722656 167.9375 99.207031 167.582031 98.707031 167.246094 C 98.449219 167.074219 98.21875 166.910156 97.96875 166.738281 L 97.59375 166.507812 L 97.421875 166.371094 L 97.375 166.335938 L 97.257812 166.265625 C 97.21875 166.238281 97.144531 166.171875 97.144531 166.171875 C 95.273438 164.570312 93.941406 163.054688 92.90625 161.894531 C 92.394531 161.328125 91.9375 160.800781 91.535156 160.332031 C 91.109375 159.890625 90.746094 159.507812 90.460938 159.191406 C 90.324219 159.035156 90.21875 158.902344 90.125 158.777344 C 89.25 158.375 88.875 158.105469 88.925781 157.941406 C 89.03125 157.605469 90.882812 157.75 94.949219 158.507812 C 97.019531 158.816406 99.667969 159.199219 102.976562 159.6875 C 106.300781 160.148438 110.292969 160.703125 115.019531 161.355469 C 119.757812 162.164062 125.300781 162.988281 131.496094 165.011719 C 134.632812 165.835938 137.808594 167.351562 141.210938 168.847656 C 144.425781 170.5625 147.792969 172.394531 151.234375 174.582031 C 152.386719 175.292969 153.527344 176.050781 154.707031 176.816406 C 154.886719 176.855469 155.089844 176.882812 155.289062 176.941406 C 157.476562 177.375 159.597656 177.929688 161.648438 178.582031 C 165.753906 179.886719 169.601562 181.5625 173.042969 183.570312 C 175.738281 185.113281 178.210938 186.898438 180.378906 188.851562 C 180.042969 187.453125 179.6875 186.070312 179.382812 184.730469 C 178.644531 182.523438 177.925781 180.382812 177.234375 178.3125 C 176.34375 176.28125 175.480469 174.332031 174.644531 172.414062 C 173.773438 170.496094 172.726562 168.65625 171.835938 166.863281 C 168.09375 159.679688 164.460938 153.398438 161.292969 147.796875 C 158.101562 142.203125 155.359375 137.292969 153 133.007812 C 143.761719 115.773438 141.683594 108.523438 142.199219 108.300781 C 142.976562 107.964844 146.171875 114.613281 156.117188 131.234375 C 158.636719 135.375 161.5625 140.171875 164.910156 145.65625 C 168.246094 151.191406 172.035156 157.414062 175.9375 164.664062 C 176.898438 166.507812 177.953125 168.320312 178.914062 170.304688 C 179.824219 172.328125 180.78125 174.398438 181.722656 176.539062 C 182.5 178.753906 183.324219 181.007812 184.101562 183.347656 C 184.675781 185.753906 185.394531 188.183594 185.867188 190.734375 C 186.230469 192.6875 186.507812 194.695312 186.71875 196.746094 C 186.863281 196.996094 186.957031 197.265625 187.074219 197.511719 C 189.308594 185.179688 191.332031 174.292969 193.117188 164.703125 C 196.011719 149.121094 198.3125 136.976562 200.175781 127.742188 C 203.886719 109.222656 205.738281 102.296875 206.425781 102.414062 C 207.117188 102.546875 206.496094 109.710938 203.683594 128.355469 C 202.292969 137.679688 200.355469 149.878906 197.730469 165.5 C 196.550781 172.375 195.234375 179.960938 193.789062 188.230469 C 199.464844 181.96875 206.226562 178.128906 212.382812 175.503906 C 219.019531 172.683594 225.207031 171.195312 230.671875 170.054688 C 236.140625 168.960938 240.953125 168.339844 245.117188 167.886719 C 248.597656 167.515625 251.609375 167.285156 254.21875 167.109375 C 257.296875 166.910156 259.347656 166.488281 262.472656 166.757812 C 265.484375 166.996094 268.554688 166.554688 271.566406 166.335938 C 272.140625 166.304688 273.265625 166 273.734375 166.046875 C 279.757812 166.707031 285.886719 172.445312 290.324219 176.125 C 293.117188 178.464844 295.742188 180.738281 298.304688 182.589844 L 304.441406 187.050781 L 297 187.625 C 296.347656 187.671875 295.714844 187.671875 295.054688 187.710938 C 294.738281 187.855469 294.363281 187.941406 293.921875 187.941406 C 273.734375 187.941406 251.628906 187.269531 231.601562 193.054688 C 227.976562 194.117188 224.398438 195.296875 220.917969 196.6875 C 224.765625 195.585938 228.707031 194.722656 232.675781 194.078125 C 254.128906 190.664062 275.785156 190.789062 297.125 195.039062 C 297.765625 195.183594 298.21875 195.480469 298.515625 195.882812 C 298.910156 196.152344 299.246094 196.554688 299.445312 197.082031 C 301.449219 202.242188 303.328125 207.4375 304.777344 212.789062 C 304.796875 212.878906 304.796875 212.964844 304.816406 213.050781 C 308.183594 218.09375 314.878906 220.136719 319.605469 223.617188 C 320.515625 224.308594 320.785156 225.296875 320.652344 226.207031 C 323.257812 228.777344 325.925781 231.253906 328.324219 234.035156 C 329.464844 234.332031 330.050781 235.308594 330.085938 236.335938 C 332.503906 237.785156 335.015625 239.210938 336.214844 241.90625 C 336.773438 243.164062 336.597656 244.613281 335.304688 245.371094 C 335.265625 245.390625 335.21875 245.390625 335.191406 245.425781 C 334.796875 246.050781 334.125 246.5 333.183594 246.550781 C 288.339844 248.707031 243.445312 247.152344 198.574219 247.105469 C 197.757812 247.105469 197.132812 246.789062 196.742188 246.320312 C 196.480469 246.320312 196.234375 246.28125 195.945312 246.183594 C 190.765625 244.410156 183.238281 238.894531 178.757812 244.410156 C 178.683594 244.515625 178.597656 244.582031 178.507812 244.667969 C 178.269531 245.695312 177.503906 246.570312 176.140625 246.550781 C 154.867188 246.367188 133.597656 245.792969 112.335938 245.390625 C 97.824219 245.121094 83.304688 244.851562 68.785156 244.535156 C 62.167969 244.390625 55.117188 244.898438 48.539062 244.027344 C 48.460938 244.007812 48.386719 243.988281 48.308594 243.980469 C 48.125 244.007812 47.925781 244.027344 47.695312 244.027344 C 45.375 243.980469 42.488281 242.960938 42 240.355469 C 41.558594 238.03125 42.535156 235.953125 44.234375 234.390625 C 44.375 234.253906 44.519531 234.148438 44.675781 234.054688 C 44.722656 233.773438 44.808594 233.507812 44.960938 233.21875 C 47.148438 229.152344 49.449219 225.144531 52.25 221.441406 C 52.632812 220.941406 53.105469 220.636719 53.632812 220.484375 C 53.738281 220.414062 53.882812 220.347656 54.023438 220.28125 C 61.265625 217.605469 67.777344 214.59375 70.992188 207.324219 C 75.460938 207.027344 80.648438 204.6875 85.136719 203.660156 C 90 202.546875 95.878906 200.257812 100.855469 200.257812 " fill-opacity="1" fill-rule="nonzero"/></g><path fill="#007a7a" d="M 47.089844 238.925781 L 47.109375 238.925781 C 47.082031 238.964844 47.042969 238.984375 47.003906 238.984375 C 47.023438 238.984375 47.042969 238.945312 47.042969 238.945312 C 47.0625 238.964844 47.082031 238.925781 47.089844 238.925781 " fill-opacity="1" fill-rule="nonzero"/><g clip-path="url(#id2)"><g clip-path="url(#id3)"><g clip-path="url(#id4)"><path fill="#b4761a" d="M 238.460938 144.488281 C 238.558594 144.53125 238.644531 144.5625 238.769531 144.597656 C 238.859375 144.503906 238.917969 144.4375 238.949219 144.308594 C 239.113281 144.335938 239.324219 144.027344 239.246094 143.878906 C 239.382812 143.820312 239.640625 143.566406 239.5625 143.386719 C 239.6875 143.335938 239.730469 143.25 239.796875 143.132812 C 240.964844 145.378906 239.578125 148.21875 240.148438 150.664062 C 240.34375 151.503906 240.484375 151.585938 241.128906 152.03125 C 241.941406 151.875 242.4375 151.730469 243.117188 152.304688 C 244.585938 153.546875 244.441406 156.597656 245.53125 156.289062 C 245.957031 156.171875 245.667969 154.820312 245.703125 153.664062 C 245.734375 152.660156 245.691406 149.414062 247.109375 149.3125 C 247.175781 149.3125 247.242188 149.3125 247.3125 149.3125 C 247.320312 148.503906 247.441406 147.695312 248.410156 147.652344 C 248.050781 146.675781 247.722656 145.6875 247.359375 144.710938 C 248.582031 145.222656 250.148438 146.1875 250.976562 145.285156 C 251.550781 144.667969 251.226562 145.140625 251.902344 144.757812 C 252.785156 144.257812 252.695312 143.703125 252.9375 143.382812 C 253.222656 143.007812 254.335938 142.765625 254.929688 141.140625 C 255.25 140.261719 256.140625 139.753906 256.585938 138.929688 C 256.773438 138.585938 256.800781 138.277344 256.757812 137.894531 C 259.140625 135.945312 254.398438 133.671875 252.660156 133.75 C 251.144531 133.816406 249.324219 134.253906 248.175781 134.644531 C 245.945312 135.402344 243.902344 136.546875 241.90625 137.777344 C 241.917969 137.617188 241.816406 137.539062 241.6875 137.46875 C 242.109375 137.542969 242.421875 136.800781 241.960938 136.695312 L 241.941406 136.613281 C 243.117188 135.964844 243.425781 136.742188 244.820312 135.574219 C 244.914062 135.496094 244.9375 135.417969 244.925781 135.289062 C 244.910156 135.285156 244.890625 135.277344 244.875 135.269531 C 244.417969 135.574219 244.628906 136.164062 242.859375 136.277344 C 242.5 136.300781 242.234375 136.40625 241.9375 136.605469 C 241.886719 136.371094 241.863281 136.167969 241.914062 135.933594 L 241.734375 135.863281 C 241.613281 136.070312 241.457031 136.203125 241.257812 136.339844 C 241.179688 135.992188 241.058594 135.734375 240.808594 135.476562 C 239.582031 134.191406 240.140625 133.902344 240.011719 133.367188 C 239.992188 133.359375 239.976562 133.355469 239.960938 133.347656 C 239.867188 133.433594 239.828125 133.507812 239.84375 133.628906 C 240.078125 135.433594 240.828125 135.070312 241.253906 136.34375 L 241.1875 136.390625 C 240.773438 136.152344 240.496094 136.910156 240.859375 137.144531 C 240.714844 137.109375 240.589844 137.09375 240.488281 137.21875 C 239.859375 134.964844 239.136719 132.738281 238.011719 130.667969 C 237.433594 129.601562 236.394531 128.046875 235.328125 126.96875 C 234.105469 125.734375 229.078125 124.183594 229.503906 127.234375 C 229.210938 127.484375 229.023438 127.730469 228.925781 128.113281 C 228.695312 129.015625 229.003906 129.996094 228.640625 130.855469 C 227.972656 132.453125 228.625 133.386719 228.578125 133.851562 C 228.539062 134.253906 228.09375 134.597656 228.40625 135.566406 C 228.640625 136.308594 228.726562 135.738281 228.722656 136.582031 C 228.722656 137.804688 230.527344 138.160156 231.773438 138.613281 C 230.84375 139.082031 229.929688 139.589844 229.003906 140.0625 C 229.6875 140.75 229.226562 141.425781 228.679688 142.027344 C 228.730469 142.070312 228.78125 142.117188 228.832031 142.160156 C 229.804688 143.199219 227.566406 145.550781 226.90625 146.308594 C 226.144531 147.183594 225.019531 147.980469 225.25 148.355469 C 225.839844 149.320312 227.808594 146.984375 229.730469 147.066406 C 230.621094 147.105469 230.882812 147.550781 231.375 148.214844 C 232.152344 148.328125 232.308594 148.359375 233.023438 147.875 C 235.101562 146.46875 236.015625 143.441406 238.398438 142.589844 C 238.367188 142.714844 238.339844 142.808594 238.398438 142.933594 C 238.21875 143.011719 238.234375 143.371094 238.296875 143.507812 C 238.136719 143.5625 238.082031 143.933594 238.222656 144.023438 C 238.160156 144.140625 238.152344 144.230469 238.15625 144.359375 C 238.269531 144.417969 238.355469 144.453125 238.460938 144.488281 " fill-opacity="1" fill-rule="evenodd"/></g></g></g><g clip-path="url(#id5)"><g clip-path="url(#id6)"><g clip-path="url(#id7)"><path fill="#b4761a" d="M 251.640625 78.769531 C 251.675781 78.832031 251.710938 78.886719 251.765625 78.960938 C 251.851562 78.949219 251.914062 78.933594 251.984375 78.878906 C 252.0625 78.964844 252.308594 78.886719 252.328125 78.773438 C 252.429688 78.800781 252.675781 78.773438 252.710938 78.640625 C 252.800781 78.671875 252.863281 78.640625 252.945312 78.605469 C 252.628906 80.316406 250.664062 81.261719 249.929688 82.828125 C 249.679688 83.363281 249.722656 83.46875 249.882812 83.984375 C 250.390625 84.246094 250.722656 84.378906 250.847656 84.976562 C 251.117188 86.273438 249.742188 87.863281 250.464844 88.160156 C 250.746094 88.277344 251.164062 87.425781 251.679688 86.816406 C 252.121094 86.285156 253.480469 84.511719 254.296875 85.0625 C 254.332031 85.089844 254.371094 85.121094 254.40625 85.148438 C 254.757812 84.714844 255.167969 84.328125 255.710938 84.71875 C 255.929688 84.039062 256.175781 83.363281 256.394531 82.683594 C 256.839844 83.480469 257.285156 84.667969 258.117188 84.535156 C 258.695312 84.445312 258.316406 84.5625 258.84375 84.640625 C 259.542969 84.75 259.726562 84.410156 259.996094 84.339844 C 260.3125 84.257812 261.019531 84.601562 262.035156 83.976562 C 262.585938 83.640625 263.285156 83.742188 263.878906 83.488281 C 264.128906 83.382812 264.273438 83.226562 264.414062 83 C 266.542969 82.964844 264.929688 79.714844 263.949219 79.015625 C 263.09375 78.40625 261.917969 77.867188 261.125 77.585938 C 259.589844 77.046875 257.988281 76.792969 256.378906 76.609375 C 256.453125 76.527344 256.429688 76.441406 256.390625 76.347656 C 256.589844 76.570312 257.078125 76.300781 256.867188 76.046875 L 256.894531 75.996094 C 257.808594 76.144531 257.644531 76.695312 258.902344 76.660156 C 258.988281 76.660156 259.035156 76.625 259.082031 76.550781 C 259.074219 76.542969 259.070312 76.53125 259.0625 76.519531 C 258.683594 76.488281 258.546875 76.898438 257.535156 76.203125 C 257.332031 76.0625 257.140625 76.007812 256.894531 75.992188 C 256.96875 75.839844 257.039062 75.722656 257.167969 75.617188 L 257.101562 75.503906 C 256.945312 75.5625 256.804688 75.566406 256.636719 75.558594 C 256.742188 75.335938 256.785156 75.144531 256.761719 74.898438 C 256.640625 73.679688 257.066406 73.761719 257.222656 73.417969 C 257.21875 73.40625 257.210938 73.398438 257.207031 73.386719 C 257.117188 73.394531 257.066406 73.417969 257.023438 73.488281 C 256.382812 74.5625 256.945312 74.6875 256.632812 75.558594 L 256.578125 75.554688 C 256.453125 75.25 255.980469 75.542969 256.078125 75.820312 C 256.015625 75.738281 255.953125 75.679688 255.84375 75.703125 C 256.460938 74.21875 257.015625 72.707031 257.285156 71.109375 C 257.425781 70.285156 257.523438 69 257.402344 67.964844 C 257.261719 66.773438 255.183594 63.796875 254.117188 65.625 C 253.851562 65.636719 253.644531 65.6875 253.429688 65.851562 C 252.917969 66.242188 252.667969 66.902344 252.105469 67.214844 C 251.0625 67.792969 251.019531 68.574219 250.792969 68.808594 C 250.601562 69.007812 250.210938 69.007812 249.96875 69.664062 C 249.78125 70.164062 250.070312 69.890625 249.710938 70.347656 C 249.1875 71.007812 250.019531 71.96875 250.503906 72.742188 C 249.796875 72.601562 249.085938 72.488281 248.378906 72.347656 C 248.460938 73.007812 247.917969 73.179688 247.367188 73.269531 C 247.375 73.316406 247.382812 73.363281 247.390625 73.410156 C 247.480469 74.382812 245.257812 74.703125 244.578125 74.828125 C 243.789062 74.976562 242.835938 74.929688 242.800781 75.230469 C 242.714844 76.003906 244.78125 75.578125 245.789062 76.441406 C 246.257812 76.84375 246.210938 77.195312 246.199219 77.765625 C 246.574219 78.15625 246.644531 78.238281 247.238281 78.28125 C 248.972656 78.410156 250.757812 77.160156 252.417969 77.714844 C 252.347656 77.769531 252.292969 77.808594 252.273438 77.902344 C 252.140625 77.867188 251.996094 78.070312 251.972656 78.167969 C 251.859375 78.132812 251.671875 78.308594 251.710938 78.417969 C 251.628906 78.453125 251.585938 78.5 251.535156 78.570312 C 251.570312 78.648438 251.601562 78.707031 251.640625 78.769531 " fill-opacity="1" fill-rule="evenodd"/></g></g></g><g clip-path="url(#id8)"><g clip-path="url(#id9)"><g clip-path="url(#id10)"><path fill="#b4761a" d="M 259.976562 57.769531 C 260.019531 57.769531 260.058594 57.769531 260.109375 57.761719 C 260.128906 57.714844 260.136719 57.679688 260.128906 57.625 C 260.195312 57.609375 260.222656 57.460938 260.171875 57.417969 C 260.214844 57.375 260.269531 57.238281 260.210938 57.183594 C 260.25 57.144531 260.25 57.105469 260.257812 57.054688 C 261.054688 57.707031 260.992188 58.984375 261.601562 59.808594 C 261.808594 60.089844 261.875 60.097656 262.1875 60.164062 C 262.464844 59.976562 262.625 59.84375 262.972656 59.949219 C 263.722656 60.183594 264.160156 61.34375 264.519531 61.054688 C 264.65625 60.945312 264.332031 60.484375 264.160156 60.046875 C 264.011719 59.667969 263.472656 58.464844 263.988281 58.203125 C 264.011719 58.191406 264.039062 58.179688 264.0625 58.171875 C 263.9375 57.867188 263.851562 57.542969 264.207031 57.375 C 263.914062 57.070312 263.636719 56.75 263.34375 56.445312 C 263.882812 56.441406 264.625 56.554688 264.789062 56.085938 C 264.902344 55.765625 264.859375 55.992188 265.050781 55.742188 C 265.300781 55.417969 265.179688 55.222656 265.21875 55.066406 C 265.261719 54.882812 265.640625 54.613281 265.601562 53.914062 C 265.582031 53.535156 265.832031 53.203125 265.867188 52.828125 C 265.882812 52.667969 265.84375 52.550781 265.765625 52.414062 C 266.34375 51.308594 264.203125 51.210938 263.566406 51.515625 C 263.007812 51.777344 262.398438 52.230469 262.03125 52.558594 C 261.316406 53.195312 260.734375 53.945312 260.1875 54.71875 C 260.164062 54.65625 260.117188 54.644531 260.054688 54.640625 C 260.226562 54.597656 260.222656 54.273438 260.035156 54.304688 L 260.011719 54.277344 C 260.347656 53.851562 260.589844 54.09375 260.925781 53.4375 C 260.945312 53.390625 260.941406 53.359375 260.917969 53.3125 C 260.910156 53.3125 260.902344 53.3125 260.894531 53.3125 C 260.773438 53.5 260.949219 53.6875 260.300781 54.007812 C 260.171875 54.074219 260.089844 54.15625 260.011719 54.277344 C 259.953125 54.195312 259.914062 54.125 259.894531 54.03125 L 259.816406 54.03125 C 259.800781 54.128906 259.765625 54.203125 259.714844 54.285156 C 259.628906 54.167969 259.542969 54.089844 259.40625 54.035156 C 258.742188 53.746094 258.902344 53.554688 258.769531 53.375 C 258.761719 53.375 258.753906 53.375 258.746094 53.375 C 258.726562 53.421875 258.722656 53.453125 258.75 53.496094 C 259.125 54.132812 259.351562 53.878906 259.710938 54.289062 L 259.695312 54.316406 C 259.5 54.292969 259.519531 54.617188 259.691406 54.648438 C 259.632812 54.660156 259.585938 54.671875 259.566406 54.734375 C 258.96875 53.992188 258.339844 53.277344 257.585938 52.683594 C 257.199219 52.375 256.5625 51.960938 255.988281 51.726562 C 255.332031 51.457031 253.203125 51.675781 253.851562 52.746094 C 253.78125 52.886719 253.75 53.007812 253.773438 53.164062 C 253.835938 53.539062 254.105469 53.855469 254.109375 54.234375 C 254.117188 54.9375 254.511719 55.183594 254.566406 55.363281 C 254.617188 55.519531 254.507812 55.71875 254.78125 56.03125 C 254.988281 56.269531 254.925781 56.042969 255.0625 56.359375 C 255.257812 56.816406 255.988281 56.664062 256.527344 56.636719 C 256.257812 56.957031 255.996094 57.292969 255.726562 57.613281 C 256.089844 57.761719 256.027344 58.085938 255.921875 58.398438 C 255.945312 58.40625 255.972656 58.414062 256 58.425781 C 256.527344 58.65625 256.070312 59.890625 255.945312 60.277344 C 255.800781 60.726562 255.503906 61.199219 255.652344 61.304688 C 256.027344 61.570312 256.390625 60.386719 257.121094 60.113281 C 257.460938 59.988281 257.628906 60.113281 257.921875 60.28125 C 258.230469 60.199219 258.296875 60.1875 258.484375 59.894531 C 259.039062 59.039062 258.890625 57.765625 259.648438 57.070312 C 259.65625 57.121094 259.660156 57.164062 259.703125 57.199219 C 259.648438 57.257812 259.710938 57.386719 259.757812 57.429688 C 259.707031 57.476562 259.746094 57.621094 259.8125 57.632812 C 259.804688 57.6875 259.820312 57.722656 259.84375 57.769531 C 259.894531 57.773438 259.929688 57.773438 259.976562 57.769531 " fill-opacity="1" fill-rule="evenodd"/></g></g></g><g clip-path="url(#id11)"><g clip-path="url(#id12)"><g clip-path="url(#id13)"><path fill="#b4761a" d="M 97.347656 119.171875 C 97.4375 119.101562 97.507812 119.03125 97.601562 118.933594 C 97.558594 118.800781 97.523438 118.714844 97.417969 118.621094 C 97.527344 118.480469 97.339844 118.128906 97.160156 118.132812 C 97.171875 117.972656 97.058594 117.605469 96.851562 117.589844 C 96.867188 117.445312 96.804688 117.363281 96.730469 117.246094 C 99.421875 117.25 101.414062 119.953125 104.003906 120.621094 C 104.890625 120.851562 105.035156 120.761719 105.773438 120.375 C 106.027344 119.53125 106.132812 118.996094 107.011719 118.640625 C 108.90625 117.867188 111.710938 119.503906 111.957031 118.332031 C 112.054688 117.871094 110.640625 117.476562 109.566406 116.875 C 108.636719 116.351562 105.554688 114.792969 106.15625 113.410156 C 106.191406 113.347656 106.222656 113.285156 106.257812 113.21875 C 105.5 112.8125 104.792969 112.300781 105.234375 111.371094 C 104.136719 111.226562 103.042969 111.046875 101.945312 110.90625 C 103.027344 110.011719 104.707031 109.011719 104.269531 107.789062 C 103.964844 106.945312 104.253906 107.484375 104.226562 106.660156 C 104.191406 105.582031 103.621094 105.390625 103.441406 105.007812 C 103.226562 104.554688 103.546875 103.390625 102.304688 102.03125 C 101.636719 101.296875 101.59375 100.207031 101.039062 99.382812 C 100.808594 99.039062 100.53125 98.859375 100.144531 98.710938 C 99.484375 95.507812 95.003906 98.851562 94.21875 100.523438 C 93.535156 101.984375 93.050781 103.910156 92.855469 105.183594 C 92.46875 107.652344 92.539062 110.140625 92.71875 112.621094 C 92.570312 112.53125 92.449219 112.589844 92.316406 112.675781 C 92.597656 112.316406 92.050781 111.65625 91.722656 112.039062 L 91.636719 112.015625 C 91.605469 110.59375 92.488281 110.683594 92.078125 108.796875 C 92.050781 108.667969 91.988281 108.609375 91.859375 108.558594 C 91.847656 108.570312 91.832031 108.582031 91.816406 108.597656 C 91.878906 109.175781 92.539062 109.265625 91.773438 110.988281 C 91.617188 111.339844 91.589844 111.640625 91.628906 112.015625 C 91.382812 111.949219 91.179688 111.871094 90.984375 111.707031 L 90.828125 111.839844 C 90.964844 112.058594 91.011719 112.269531 91.042969 112.523438 C 90.675781 112.429688 90.375 112.417969 90.007812 112.523438 C 88.191406 113.042969 88.191406 112.375 87.625 112.234375 C 87.609375 112.246094 87.597656 112.257812 87.582031 112.269531 C 87.617188 112.40625 87.667969 112.472656 87.789062 112.519531 C 89.605469 113.1875 89.636719 112.304688 91.046875 112.53125 L 91.054688 112.617188 C 90.628906 112.890625 91.207031 113.523438 91.605469 113.296875 C 91.5 113.414062 91.425781 113.527344 91.496094 113.679688 C 89.058594 113.164062 86.601562 112.746094 84.097656 112.785156 C 82.808594 112.804688 80.828125 113.015625 79.285156 113.488281 C 77.519531 114.03125 73.582031 117.996094 76.664062 119.09375 C 76.757812 119.496094 76.894531 119.792969 77.207031 120.074219 C 77.949219 120.734375 79.019531 120.929688 79.65625 121.691406 C 80.832031 123.105469 82.03125 122.953125 82.449219 123.226562 C 82.808594 123.460938 82.917969 124.046875 83.980469 124.234375 C 84.796875 124.375 84.300781 124.015625 85.09375 124.433594 C 86.246094 125.035156 87.472656 123.515625 88.511719 122.566406 C 88.496094 123.671875 88.527344 124.78125 88.515625 125.886719 C 89.5 125.578125 89.910156 126.347656 90.207031 127.15625 C 90.273438 127.128906 90.34375 127.105469 90.410156 127.078125 C 91.867188 126.675781 92.980469 129.941406 93.371094 130.933594 C 93.820312 132.082031 94.015625 133.53125 94.484375 133.5 C 95.683594 133.417969 94.449219 130.417969 95.476562 128.652344 C 95.953125 127.832031 96.5 127.804688 97.371094 127.667969 C 97.855469 126.992188 97.964844 126.863281 97.863281 125.953125 C 97.558594 123.300781 95.15625 120.953125 95.527344 118.292969 C 95.628906 118.382812 95.703125 118.457031 95.851562 118.460938 C 95.835938 118.667969 96.183594 118.832031 96.339844 118.839844 C 96.316406 119.019531 96.636719 119.25 96.792969 119.164062 C 96.871094 119.28125 96.953125 119.332031 97.078125 119.390625 C 97.1875 119.3125 97.265625 119.25 97.347656 119.171875 " fill-opacity="1" fill-rule="evenodd"/></g></g></g><g clip-path="url(#id14)"><g clip-path="url(#id15)"><g clip-path="url(#id16)"><path fill="#b4761a" d="M 63.058594 112.445312 C 63.046875 112.378906 63.03125 112.320312 63.007812 112.246094 C 62.929688 112.230469 62.871094 112.222656 62.792969 112.25 C 62.753906 112.15625 62.519531 112.152344 62.46875 112.246094 C 62.390625 112.195312 62.167969 112.148438 62.101562 112.253906 C 62.03125 112.203125 61.972656 112.210938 61.890625 112.21875 C 62.652344 110.832031 64.617188 110.570312 65.695312 109.425781 C 66.0625 109.03125 66.058594 108.929688 66.066406 108.441406 C 65.703125 108.070312 65.457031 107.863281 65.519531 107.308594 C 65.65625 106.113281 67.296875 105.132812 66.761719 104.671875 C 66.550781 104.492188 65.945312 105.109375 65.328125 105.492188 C 64.796875 105.824219 63.117188 106.972656 62.574219 106.269531 C 62.550781 106.230469 62.527344 106.195312 62.503906 106.160156 C 62.078125 106.4375 61.613281 106.65625 61.257812 106.164062 C 60.875 106.691406 60.46875 107.203125 60.085938 107.730469 C 59.929688 106.917969 59.886719 105.765625 59.128906 105.644531 C 58.609375 105.5625 58.96875 105.566406 58.535156 105.347656 C 57.964844 105.0625 57.707031 105.300781 57.457031 105.285156 C 57.164062 105.265625 56.652344 104.773438 55.597656 105.027344 C 55.027344 105.160156 54.453125 104.875 53.871094 104.925781 C 53.625 104.949219 53.453125 105.042969 53.269531 105.199219 C 51.425781 104.632812 51.886719 107.890625 52.527344 108.769531 C 53.089844 109.535156 53.949219 110.332031 54.550781 110.792969 C 55.722656 111.691406 57.027344 112.363281 58.359375 112.972656 C 58.273438 113.023438 58.269531 113.101562 58.277344 113.195312 C 58.167969 112.949219 57.671875 113.042969 57.777344 113.320312 L 57.742188 113.359375 C 56.996094 112.972656 57.296875 112.542969 56.203125 112.21875 C 56.128906 112.199219 56.082031 112.210938 56.015625 112.261719 C 56.019531 112.273438 56.023438 112.285156 56.023438 112.296875 C 56.339844 112.429688 56.578125 112.113281 57.25 113 C 57.386719 113.175781 57.53125 113.277344 57.742188 113.363281 C 57.632812 113.472656 57.539062 113.554688 57.398438 113.609375 L 57.421875 113.726562 C 57.574219 113.71875 57.695312 113.753906 57.835938 113.808594 C 57.683594 113.972656 57.589844 114.125 57.542969 114.34375 C 57.296875 115.425781 56.953125 115.238281 56.71875 115.488281 C 56.722656 115.5 56.722656 115.511719 56.726562 115.523438 C 56.804688 115.542969 56.855469 115.535156 56.914062 115.484375 C 57.773438 114.738281 57.324219 114.472656 57.839844 113.8125 L 57.886719 113.832031 C 57.910156 114.128906 58.398438 114.007812 58.394531 113.738281 C 58.425781 113.824219 58.464844 113.894531 58.5625 113.90625 C 57.605469 115.015625 56.695312 116.164062 56.003906 117.464844 C 55.652344 118.136719 55.199219 119.214844 55.007812 120.144531 C 54.789062 121.210938 55.722656 124.367188 57.164062 123.085938 C 57.398438 123.152344 57.59375 123.167969 57.824219 123.085938 C 58.378906 122.890625 58.78125 122.394531 59.355469 122.28125 C 60.417969 122.074219 60.679688 121.414062 60.941406 121.277344 C 61.164062 121.15625 61.496094 121.269531 61.894531 120.769531 C 62.199219 120.390625 61.871094 120.546875 62.3125 120.253906 C 62.949219 119.832031 62.511719 118.769531 62.316406 117.960938 C 62.882812 118.285156 63.464844 118.582031 64.03125 118.902344 C 64.152344 118.308594 64.664062 118.316406 65.167969 118.390625 C 65.171875 118.347656 65.179688 118.304688 65.1875 118.265625 C 65.390625 117.398438 67.394531 117.75 68.015625 117.832031 C 68.738281 117.925781 69.542969 118.234375 69.660156 117.984375 C 69.957031 117.34375 68.058594 117.128906 67.433594 116.097656 C 67.144531 115.617188 67.285156 115.332031 67.460938 114.84375 C 67.25 114.398438 67.214844 114.304688 66.714844 114.101562 C 65.257812 113.507812 63.359375 114.082031 62.089844 113.132812 C 62.164062 113.105469 62.226562 113.089844 62.269531 113.015625 C 62.371094 113.082031 62.554688 112.949219 62.605469 112.867188 C 62.6875 112.933594 62.902344 112.832031 62.898438 112.730469 C 62.980469 112.722656 63.03125 112.691406 63.097656 112.644531 C 63.085938 112.566406 63.074219 112.507812 63.058594 112.445312 " fill-opacity="1" fill-rule="evenodd"/></g></g></g><g clip-path="url(#id17)"><g clip-path="url(#id18)"><g clip-path="url(#id19)"><path fill="#b4761a" d="M 180.707031 84.113281 C 178.636719 82.078125 180.441406 75.804688 180.78125 70.730469 C 179.660156 73.011719 178.542969 75.296875 177.421875 77.578125 C 169.175781 90.28125 172.109375 83.402344 168.242188 81.828125 C 153.910156 92.222656 163.785156 85.003906 167.660156 81.007812 C 167.554688 80.679688 167.445312 80.351562 167.339844 80.027344 C 165.941406 79.246094 163.304688 78.230469 165.628906 76.699219 C 164.289062 75.171875 163.664062 74.382812 165.980469 73.007812 C 162.765625 69.167969 176.6875 68.320312 178.269531 68.050781 C 173.9375 68.078125 170.78125 68.484375 166.488281 69.34375 C 160.960938 66.898438 165.230469 58.703125 162.851562 51.804688 C 166.339844 47.964844 179.285156 60 180.734375 66.546875 C 180.8125 66.386719 180.890625 66.277344 180.96875 66.191406 C 181.027344 65.839844 181.238281 65.503906 181.011719 65.320312 C 180.695312 65.078125 180.839844 64.703125 181.078125 64.5625 C 178.285156 50.820312 174.453125 52.46875 172.371094 52.207031 C 178.210938 51.488281 179.453125 57.28125 181.324219 64.347656 C 181.476562 64.058594 181.914062 64.117188 181.972656 64.4375 C 183.96875 56.980469 186.160156 51.464844 191.4375 52.328125 C 190.699219 52.691406 185.644531 49.871094 182.21875 64.636719 C 182.414062 64.808594 182.5 65.164062 182.1875 65.363281 C 181.894531 65.5625 182.128906 65.882812 182.164062 66.324219 C 182.230469 66.417969 182.296875 66.53125 182.355469 66.691406 C 184.460938 60.324219 198.613281 49.238281 201.695312 53.40625 C 198.628906 60.03125 202.046875 68.617188 196.300781 70.492188 C 192.117188 69.207031 189.019531 68.484375 184.710938 68.023438 C 186.261719 68.449219 200.023438 70.691406 196.4375 74.1875 C 198.601562 75.789062 197.902344 76.511719 196.414062 77.894531 C 198.574219 79.65625 195.847656 80.402344 194.375 81.035156 C 194.234375 81.347656 194.09375 81.664062 193.953125 81.980469 C 197.40625 86.347656 206.503906 94.519531 193.296875 82.738281 C 189.285156 83.914062 191.507812 91.054688 184.589844 77.585938 C 183.710938 75.203125 182.835938 73.121094 181.953125 70.734375 C 181.78125 75.605469 183.019531 82.753906 180.707031 84.113281 " fill-opacity="1" fill-rule="evenodd"/></g></g></g><g clip-path="url(#id20)"><g clip-path="url(#id21)"><g clip-path="url(#id22)"><path fill="#b4761a" d="M 137.609375 60.085938 C 137.550781 60.074219 137.496094 60.066406 137.441406 60.058594 C 139.464844 57.066406 139.738281 53.316406 139.949219 49.828125 C 140.292969 47.457031 138.714844 47.46875 139.660156 49.902344 C 139.488281 53.050781 139.363281 54.726562 138.332031 58.054688 C 138.90625 55.492188 139.269531 52.761719 138.664062 50.203125 C 138.792969 48.027344 137.097656 47.734375 138.394531 50.332031 C 139.066406 52.699219 138.675781 57.699219 137.183594 60.054688 C 136.539062 60.117188 136.390625 60.796875 136.285156 61.890625 C 135.71875 60.597656 139.667969 53.199219 127.238281 43.746094 C 127.097656 45.59375 125.960938 48.398438 128.136719 50.964844 C 129.441406 52.507812 126.96875 53.378906 128.730469 57.089844 C 126.59375 54.90625 123.800781 51.527344 115.109375 50.894531 C 115.660156 53.714844 118.015625 56.164062 120.609375 57.648438 C 118.539062 61.050781 117.359375 67.1875 126.578125 66.957031 C 123.898438 70.21875 124.355469 71.496094 124.757812 72.660156 C 125.160156 73.835938 126.34375 76.230469 122.554688 77.765625 C 126.5625 77.972656 128.921875 76.933594 129.847656 74.886719 C 130.515625 76.019531 129.910156 78.285156 127.277344 78.59375 C 134.398438 80.378906 136.1875 69.730469 135.90625 65.578125 C 136.292969 66.949219 136.253906 68.5625 135.949219 70.167969 C 135.035156 75.011719 137.898438 75.609375 137.789062 70.144531 C 137.742188 67.808594 136.347656 64.015625 137.210938 62.414062 C 137.878906 61.175781 138.207031 60.441406 137.609375 60.085938 " fill-opacity="1" fill-rule="evenodd"/></g></g></g><g fill="#b4761a" fill-opacity="1"><g transform="translate(64.965924, 312.846894)"><g><path d="M 1.210938 -30.980469 L 1.75 -30.980469 L 1.75 -37.085938 C 1.75 -42.296875 4.9375 -44.136719 7.589844 -44.136719 L 12.660156 -44.136719 L 12.660156 -3.414062 C 12.660156 -0.941406 11.226562 -0.539062 10.371094 -0.539062 L 8.304688 -0.539062 L 8.304688 0 L 20.292969 0 L 20.292969 -0.539062 L 18.230469 -0.539062 C 17.375 -0.539062 15.9375 -0.941406 15.9375 -3.414062 L 15.9375 -44.136719 L 21.011719 -44.136719 C 23.660156 -44.136719 26.851562 -42.296875 26.851562 -37.085938 L 26.851562 -30.980469 L 27.386719 -30.980469 L 27.386719 -45.796875 L 26.851562 -45.796875 C 26.851562 -45.304688 26.445312 -44.898438 25.636719 -44.898438 L 2.964844 -44.898438 C 2.15625 -44.898438 1.75 -45.304688 1.75 -45.796875 L 1.210938 -45.796875 Z M 1.210938 -30.980469 "/></g></g></g><g fill="#b4761a" fill-opacity="1"><g transform="translate(95.900204, 312.846894)"><g><path d="M 12.660156 0 L 12.660156 -0.539062 L 10.597656 -0.539062 C 9.742188 -0.539062 8.304688 -0.941406 8.304688 -3.414062 L 8.304688 -19.621094 C 9.5625 -23.480469 12.347656 -26.984375 15.894531 -26.984375 C 19.171875 -26.984375 18.902344 -23.300781 18.902344 -22.316406 L 18.902344 -3.414062 C 18.902344 -0.941406 17.464844 -0.539062 16.613281 -0.539062 L 14.546875 -0.539062 L 14.546875 0 L 26.3125 0 L 26.3125 -0.539062 L 24.246094 -0.539062 C 23.390625 -0.539062 21.957031 -0.941406 21.957031 -3.414062 L 21.957031 -21.058594 C 21.957031 -24.648438 20.339844 -27.613281 16.027344 -27.613281 C 13.109375 -27.613281 9.878906 -25.324219 8.304688 -21.101562 L 8.304688 -45.796875 L 7.765625 -45.796875 C 7.765625 -44.496094 6.105469 -42.699219 2.964844 -42.699219 L 2.964844 -42.160156 C 5.296875 -42.160156 5.253906 -40.5 5.253906 -39.554688 L 5.253906 -3.414062 C 5.253906 -0.941406 3.816406 -0.539062 2.964844 -0.539062 L 0.898438 -0.539062 L 0.898438 0 Z M 12.660156 0 "/></g></g></g><g fill="#b4761a" fill-opacity="1"><g transform="translate(124.993724, 312.846894)"><g><path d="M 16.476562 0.898438 C 25.007812 0.898438 30.710938 -4.804688 30.710938 -13.335938 L 30.171875 -13.335938 C 30.171875 -5.972656 25.414062 -1.257812 18.542969 -1.257812 C 10.011719 -1.257812 4.488281 -7.5 4.488281 -15.265625 C 4.488281 -16.074219 4.578125 -16.835938 4.714844 -17.601562 L 28.601562 -17.601562 C 28.601562 -17.601562 28.015625 -27.566406 16.476562 -27.566406 C 7.945312 -27.566406 2.246094 -21.867188 2.246094 -13.335938 C 2.246094 -4.804688 7.945312 0.898438 16.476562 0.898438 Z M 4.804688 -18.140625 C 6.015625 -23.210938 10.371094 -27.027344 15.714844 -27.027344 C 20.742188 -27.027344 25.457031 -23.347656 25.546875 -18.140625 Z M 4.804688 -18.140625 "/></g></g></g><g fill="#b4761a" fill-opacity="1"><g transform="translate(157.589184, 312.846894)"><g/></g></g><g fill="#b4761a" fill-opacity="1"><g transform="translate(175.683036, 312.846894)"><g><path d="M 1.347656 -44.359375 L 3.414062 -44.359375 C 4.265625 -44.359375 5.703125 -43.957031 5.703125 -41.488281 L 5.703125 -3.414062 C 5.703125 -0.941406 4.265625 -0.539062 3.414062 -0.539062 L 1.347656 -0.539062 L 1.347656 0 L 13.828125 0 L 13.828125 -0.539062 L 11.316406 -0.539062 C 8.890625 -0.539062 6.332031 -0.449219 6.332031 -14.1875 L 6.332031 -41.847656 L 30.441406 0 L 31.070312 0 L 31.070312 -41.488281 C 31.070312 -43.957031 32.507812 -44.359375 33.359375 -44.359375 L 35.425781 -44.359375 L 35.425781 -44.898438 L 22.945312 -44.898438 L 22.945312 -44.359375 L 25.457031 -44.359375 C 27.882812 -44.359375 30.441406 -44.449219 30.441406 -30.710938 L 30.441406 -6.78125 L 8.621094 -44.898438 L 1.347656 -44.898438 Z M 1.347656 -44.359375 "/></g></g></g><g fill="#b4761a" fill-opacity="1"><g transform="translate(214.78851, 312.846894)"><g><path d="M 16.476562 0.898438 C 24.335938 0.898438 30.710938 -5.476562 30.710938 -13.335938 C 30.710938 -21.191406 24.335938 -27.566406 16.476562 -27.566406 C 8.621094 -27.566406 2.246094 -21.191406 2.246094 -13.335938 C 2.246094 -5.476562 8.621094 0.898438 16.476562 0.898438 Z M 4.175781 -16.523438 C 4.175781 -21.640625 7.992188 -25.59375 13.964844 -25.59375 C 22.628906 -25.59375 28.78125 -18.140625 28.78125 -10.148438 C 28.78125 -5.027344 24.964844 -1.078125 18.992188 -1.078125 C 9.921875 -1.078125 4.175781 -8.394531 4.175781 -16.523438 Z M 4.175781 -16.523438 "/></g></g></g><g fill="#b4761a" fill-opacity="1"><g transform="translate(250.077756, 312.846894)"><g><path d="M 16.476562 0.898438 C 24.335938 0.898438 30.710938 -5.476562 30.710938 -13.335938 C 30.710938 -21.191406 24.335938 -27.566406 16.476562 -27.566406 C 8.621094 -27.566406 2.246094 -21.191406 2.246094 -13.335938 C 2.246094 -5.476562 8.621094 0.898438 16.476562 0.898438 Z M 4.175781 -16.523438 C 4.175781 -21.640625 7.992188 -25.59375 13.964844 -25.59375 C 22.628906 -25.59375 28.78125 -18.140625 28.78125 -10.148438 C 28.78125 -5.027344 24.964844 -1.078125 18.992188 -1.078125 C 9.921875 -1.078125 4.175781 -8.394531 4.175781 -16.523438 Z M 4.175781 -16.523438 "/></g></g></g><g fill="#b4761a" fill-opacity="1"><g transform="translate(285.367002, 312.846894)"><g><path d="M 12.660156 0 L 12.660156 -0.539062 L 10.597656 -0.539062 C 9.742188 -0.539062 8.304688 -0.941406 8.304688 -3.414062 L 8.304688 -17.152344 C 13.695312 -7.453125 16.835938 -2.648438 16.835938 -1.4375 C 16.835938 -0.898438 16.433594 -0.539062 15.714844 -0.539062 L 14.503906 -0.539062 L 14.503906 0 L 24.199219 0 L 24.199219 -0.539062 L 23.480469 -0.539062 C 21.640625 -0.539062 20.339844 -2.019531 16.882812 -7.902344 C 15.355469 -10.460938 12.929688 -14.503906 10.820312 -18.320312 C 14.636719 -21.371094 19.753906 -26.132812 22.496094 -26.132812 L 23.527344 -26.132812 L 23.527344 -26.671875 L 15.085938 -26.671875 L 15.085938 -26.132812 L 16.34375 -26.132812 C 17.464844 -26.132812 17.511719 -24.335938 14.726562 -22.179688 L 8.304688 -17.152344 L 8.304688 -45.796875 L 7.765625 -45.796875 C 7.765625 -44.496094 6.105469 -42.699219 2.964844 -42.699219 L 2.964844 -42.160156 C 5.296875 -42.160156 5.253906 -40.5 5.253906 -39.554688 L 5.253906 -3.414062 C 5.253906 -0.941406 3.816406 -0.539062 2.964844 -0.539062 L 0.898438 -0.539062 L 0.898438 0 Z M 12.660156 0 "/></g></g></g></svg>